<?xml version="1.0" standalone="no"?>
<!DOCTYPE svg PUBLIC "-//W3C//DTD SVG 20010904//EN"
 "http://www.w3.org/TR/2001/REC-SVG-20010904/DTD/svg10.dtd">
<svg version="1.0" xmlns="http://www.w3.org/2000/svg"
 width="200.000000pt" height="200.000000pt" viewBox="0 0 200.000000 200.000000"
 preserveAspectRatio="xMidYMid meet">
<metadata>
Created by potrace 1.16, written by Peter Selinger 2001-2019
</metadata>
<g transform="translate(0.000000,200.000000) scale(0.100000,-0.100000)"
fill="#000000" stroke="none">
<path d="M450 1904 c-14 -3 -51 -9 -82 -15 l-58 -12 0 -64 c0 -58 2 -64 18
-58 118 45 376 53 550 16 56 -12 126 -31 155 -42 66 -26 53 -13 -49 49 -159
95 -384 148 -534 126z"/>
<path d="M335 1676 c-27 -7 -67 -20 -87 -29 l-37 -16 19 -58 c11 -32 22 -63
24 -69 3 -8 31 -2 86 17 112 40 264 69 371 72 49 1 89 5 89 8 0 10 -142 66
-198 78 -69 14 -203 13 -267 -3z"/>
<path d="M540 1504 c-54 -14 -133 -55 -145 -74 -3 -5 6 -27 21 -50 l26 -40 38
30 c82 65 219 108 304 95 41 -6 41 -6 14 10 -35 20 -134 45 -173 44 -16 0 -55
-7 -85 -15z"/>
<path d="M1353 1275 c-13 -19 -23 -36 -23 -38 0 -2 15 -1 33 1 42 5 219 -32
304 -63 37 -13 69 -23 71 -21 8 8 -184 98 -268 126 -52 16 -94 30 -95 30 0 0
-10 -16 -22 -35z"/>
<path d="M559 847 c-131 -49 -199 -152 -199 -302 0 -122 50 -220 136 -271 56
-33 176 -45 240 -24 56 19 112 59 140 99 l24 36 0 -68 0 -67 65 0 65 0 0 105
0 105 48 0 c167 1 260 83 250 221 l-4 59 33 0 33 0 0 -245 0 -245 65 0 65 0 0
245 0 245 79 0 79 0 4 55 3 55 -392 0 -393 0 0 -67 0 -66 -28 39 c-43 59 -120
96 -206 101 -44 2 -85 -2 -107 -10z m152 -113 c21 -10 39 -33 56 -71 22 -48
25 -65 21 -133 -7 -121 -57 -186 -142 -184 -86 2 -137 68 -144 187 -5 84 15
144 64 187 40 35 95 40 145 14z m460 -13 c35 -35 38 -77 8 -114 -22 -29 -81
-51 -119 -45 -24 3 -25 6 -28 96 l-3 92 56 0 c49 0 60 -4 86 -29z"/>
</g>
</svg>
